<mxfile host="app.diagrams.net" agent="Mozilla/5.0 (Macintosh; Intel Mac OS X 10_15_7) AppleWebKit/537.36 (KHTML, like Gecko) Chrome/127.0.0.0 Safari/537.36" version="24.7.17">
  <diagram name="Page-1" id="FT69DGzZmtf_OwoHDabn">
    <mxGraphModel dx="669" dy="426" grid="1" gridSize="10" guides="1" tooltips="1" connect="1" arrows="1" fold="1" page="1" pageScale="1" pageWidth="827" pageHeight="1169" math="0" shadow="0">
      <root>
        <mxCell id="0" />
        <mxCell id="1" parent="0" />
        <mxCell id="o996kWGBLm6XRRgAgfAA-20" style="edgeStyle=orthogonalEdgeStyle;rounded=0;orthogonalLoop=1;jettySize=auto;html=1;exitX=1;exitY=0.5;exitDx=0;exitDy=0;exitPerimeter=0;entryX=0;entryY=0.5;entryDx=0;entryDy=0;" edge="1" parent="1" source="o996kWGBLm6XRRgAgfAA-5" target="o996kWGBLm6XRRgAgfAA-6">
          <mxGeometry relative="1" as="geometry" />
        </mxCell>
        <mxCell id="o996kWGBLm6XRRgAgfAA-5" value="Pubmed_id=xxxx" style="strokeWidth=2;html=1;shape=mxgraph.flowchart.start_1;whiteSpace=wrap;" vertex="1" parent="1">
          <mxGeometry x="93" y="130" width="100" height="60" as="geometry" />
        </mxCell>
        <mxCell id="o996kWGBLm6XRRgAgfAA-21" style="edgeStyle=orthogonalEdgeStyle;rounded=0;orthogonalLoop=1;jettySize=auto;html=1;exitX=1;exitY=0.5;exitDx=0;exitDy=0;" edge="1" parent="1" source="o996kWGBLm6XRRgAgfAA-6">
          <mxGeometry relative="1" as="geometry">
            <mxPoint x="340" y="160" as="targetPoint" />
          </mxGeometry>
        </mxCell>
        <mxCell id="o996kWGBLm6XRRgAgfAA-6" value="download and save full text&lt;div&gt;from Pumbed central&lt;/div&gt;" style="rounded=1;whiteSpace=wrap;html=1;absoluteArcSize=1;arcSize=14;strokeWidth=2;fillColor=#dae8fc;strokeColor=#6c8ebf;" vertex="1" parent="1">
          <mxGeometry x="215" y="125" width="100" height="70" as="geometry" />
        </mxCell>
        <mxCell id="o996kWGBLm6XRRgAgfAA-23" style="edgeStyle=orthogonalEdgeStyle;rounded=0;orthogonalLoop=1;jettySize=auto;html=1;exitX=1;exitY=0.5;exitDx=0;exitDy=0;exitPerimeter=0;entryX=0;entryY=0.5;entryDx=0;entryDy=0;" edge="1" parent="1" source="o996kWGBLm6XRRgAgfAA-7" target="o996kWGBLm6XRRgAgfAA-13">
          <mxGeometry relative="1" as="geometry" />
        </mxCell>
        <mxCell id="o996kWGBLm6XRRgAgfAA-32" value="&lt;font style=&quot;font-size: 10px;&quot;&gt;no&lt;/font&gt;" style="edgeLabel;html=1;align=center;verticalAlign=middle;resizable=0;points=[];" vertex="1" connectable="0" parent="o996kWGBLm6XRRgAgfAA-23">
          <mxGeometry x="-0.1846" relative="1" as="geometry">
            <mxPoint as="offset" />
          </mxGeometry>
        </mxCell>
        <mxCell id="o996kWGBLm6XRRgAgfAA-7" value="succes?" style="strokeWidth=2;html=1;shape=mxgraph.flowchart.decision;whiteSpace=wrap;" vertex="1" parent="1">
          <mxGeometry x="344" y="135" width="70" height="50" as="geometry" />
        </mxCell>
        <mxCell id="o996kWGBLm6XRRgAgfAA-8" value="stop" style="strokeWidth=2;html=1;shape=mxgraph.flowchart.start_1;whiteSpace=wrap;fillColor=#d5e8d4;strokeColor=#82b366;" vertex="1" parent="1">
          <mxGeometry x="344" y="220" width="70" height="40" as="geometry" />
        </mxCell>
        <mxCell id="o996kWGBLm6XRRgAgfAA-13" value="download and save abstract&lt;div&gt;from Pumbed&lt;/div&gt;" style="rounded=1;whiteSpace=wrap;html=1;absoluteArcSize=1;arcSize=14;strokeWidth=2;fillColor=#f5f5f5;strokeColor=#666666;fontColor=#333333;" vertex="1" parent="1">
          <mxGeometry x="450" y="125" width="90" height="70" as="geometry" />
        </mxCell>
        <mxCell id="o996kWGBLm6XRRgAgfAA-28" style="edgeStyle=orthogonalEdgeStyle;rounded=0;orthogonalLoop=1;jettySize=auto;html=1;exitX=0.5;exitY=1;exitDx=0;exitDy=0;exitPerimeter=0;" edge="1" parent="1" source="o996kWGBLm6XRRgAgfAA-14" target="o996kWGBLm6XRRgAgfAA-27">
          <mxGeometry relative="1" as="geometry" />
        </mxCell>
        <mxCell id="o996kWGBLm6XRRgAgfAA-31" value="&lt;font style=&quot;font-size: 10px;&quot;&gt;yes&lt;/font&gt;" style="edgeLabel;html=1;align=center;verticalAlign=middle;resizable=0;points=[];" vertex="1" connectable="0" parent="o996kWGBLm6XRRgAgfAA-28">
          <mxGeometry x="-0.05" y="1" relative="1" as="geometry">
            <mxPoint x="1" y="-6" as="offset" />
          </mxGeometry>
        </mxCell>
        <mxCell id="o996kWGBLm6XRRgAgfAA-14" value="succes?" style="strokeWidth=2;html=1;shape=mxgraph.flowchart.decision;whiteSpace=wrap;" vertex="1" parent="1">
          <mxGeometry x="455" y="220" width="80" height="50" as="geometry" />
        </mxCell>
        <mxCell id="o996kWGBLm6XRRgAgfAA-22" value="&lt;font style=&quot;font-size: 10px;&quot;&gt;yes&lt;/font&gt;" style="edgeStyle=orthogonalEdgeStyle;rounded=0;orthogonalLoop=1;jettySize=auto;html=1;exitX=0.5;exitY=1;exitDx=0;exitDy=0;exitPerimeter=0;entryX=0.5;entryY=0;entryDx=0;entryDy=0;entryPerimeter=0;" edge="1" parent="1" source="o996kWGBLm6XRRgAgfAA-7" target="o996kWGBLm6XRRgAgfAA-8">
          <mxGeometry x="-0.1429" relative="1" as="geometry">
            <mxPoint as="offset" />
          </mxGeometry>
        </mxCell>
        <mxCell id="o996kWGBLm6XRRgAgfAA-25" value="stop" style="strokeWidth=2;html=1;shape=mxgraph.flowchart.start_1;whiteSpace=wrap;fillColor=#f8cecc;strokeColor=#b85450;" vertex="1" parent="1">
          <mxGeometry x="565" y="225" width="70" height="40" as="geometry" />
        </mxCell>
        <mxCell id="o996kWGBLm6XRRgAgfAA-26" style="edgeStyle=orthogonalEdgeStyle;rounded=0;orthogonalLoop=1;jettySize=auto;html=1;exitX=1;exitY=0.5;exitDx=0;exitDy=0;exitPerimeter=0;entryX=0;entryY=0.5;entryDx=0;entryDy=0;entryPerimeter=0;" edge="1" parent="1" source="o996kWGBLm6XRRgAgfAA-14" target="o996kWGBLm6XRRgAgfAA-25">
          <mxGeometry relative="1" as="geometry" />
        </mxCell>
        <mxCell id="o996kWGBLm6XRRgAgfAA-29" value="&lt;font style=&quot;font-size: 10px;&quot;&gt;no&lt;/font&gt;" style="edgeLabel;html=1;align=center;verticalAlign=middle;resizable=0;points=[];" vertex="1" connectable="0" parent="o996kWGBLm6XRRgAgfAA-26">
          <mxGeometry x="-0.4" y="-4" relative="1" as="geometry">
            <mxPoint x="1" y="-4" as="offset" />
          </mxGeometry>
        </mxCell>
        <mxCell id="o996kWGBLm6XRRgAgfAA-27" value="download and save pdf&lt;div&gt;from Web&lt;/div&gt;" style="rounded=1;whiteSpace=wrap;html=1;absoluteArcSize=1;arcSize=14;strokeWidth=2;fillColor=#e1d5e7;strokeColor=#9673a6;" vertex="1" parent="1">
          <mxGeometry x="450" y="300" width="90" height="70" as="geometry" />
        </mxCell>
        <mxCell id="o996kWGBLm6XRRgAgfAA-33" style="edgeStyle=orthogonalEdgeStyle;rounded=0;orthogonalLoop=1;jettySize=auto;html=1;exitX=0.5;exitY=1;exitDx=0;exitDy=0;entryX=0.5;entryY=0;entryDx=0;entryDy=0;entryPerimeter=0;" edge="1" parent="1" source="o996kWGBLm6XRRgAgfAA-13" target="o996kWGBLm6XRRgAgfAA-14">
          <mxGeometry relative="1" as="geometry" />
        </mxCell>
        <mxCell id="o996kWGBLm6XRRgAgfAA-41" style="edgeStyle=orthogonalEdgeStyle;rounded=0;orthogonalLoop=1;jettySize=auto;html=1;exitX=0;exitY=0.5;exitDx=0;exitDy=0;exitPerimeter=0;entryX=1;entryY=0.5;entryDx=0;entryDy=0;" edge="1" parent="1" source="o996kWGBLm6XRRgAgfAA-34" target="o996kWGBLm6XRRgAgfAA-40">
          <mxGeometry relative="1" as="geometry" />
        </mxCell>
        <mxCell id="o996kWGBLm6XRRgAgfAA-42" value="&lt;font style=&quot;font-size: 10px;&quot;&gt;yes&lt;/font&gt;" style="edgeLabel;html=1;align=center;verticalAlign=middle;resizable=0;points=[];" vertex="1" connectable="0" parent="o996kWGBLm6XRRgAgfAA-41">
          <mxGeometry x="-0.2833" y="2" relative="1" as="geometry">
            <mxPoint as="offset" />
          </mxGeometry>
        </mxCell>
        <mxCell id="o996kWGBLm6XRRgAgfAA-34" value="found pdf?" style="strokeWidth=2;html=1;shape=mxgraph.flowchart.decision;whiteSpace=wrap;" vertex="1" parent="1">
          <mxGeometry x="339" y="310" width="80" height="50" as="geometry" />
        </mxCell>
        <mxCell id="o996kWGBLm6XRRgAgfAA-35" style="edgeStyle=orthogonalEdgeStyle;rounded=0;orthogonalLoop=1;jettySize=auto;html=1;exitX=0;exitY=0.5;exitDx=0;exitDy=0;entryX=1;entryY=0.5;entryDx=0;entryDy=0;entryPerimeter=0;" edge="1" parent="1" source="o996kWGBLm6XRRgAgfAA-27" target="o996kWGBLm6XRRgAgfAA-34">
          <mxGeometry relative="1" as="geometry" />
        </mxCell>
        <mxCell id="o996kWGBLm6XRRgAgfAA-47" style="edgeStyle=orthogonalEdgeStyle;rounded=0;orthogonalLoop=1;jettySize=auto;html=1;exitX=0;exitY=0.5;exitDx=0;exitDy=0;" edge="1" parent="1" source="o996kWGBLm6XRRgAgfAA-40">
          <mxGeometry relative="1" as="geometry">
            <mxPoint x="200" y="334.68965517241384" as="targetPoint" />
          </mxGeometry>
        </mxCell>
        <mxCell id="o996kWGBLm6XRRgAgfAA-40" value="parse pdf with grobid" style="rounded=1;whiteSpace=wrap;html=1;absoluteArcSize=1;arcSize=14;strokeWidth=2;fillColor=#ffe6cc;strokeColor=#d79b00;" vertex="1" parent="1">
          <mxGeometry x="223" y="300" width="85" height="70" as="geometry" />
        </mxCell>
        <mxCell id="o996kWGBLm6XRRgAgfAA-56" style="edgeStyle=orthogonalEdgeStyle;rounded=0;orthogonalLoop=1;jettySize=auto;html=1;exitX=0.5;exitY=0;exitDx=0;exitDy=0;exitPerimeter=0;endArrow=none;endFill=0;" edge="1" parent="1" source="o996kWGBLm6XRRgAgfAA-43">
          <mxGeometry relative="1" as="geometry">
            <mxPoint x="380" y="280" as="targetPoint" />
            <Array as="points">
              <mxPoint x="157" y="280" />
            </Array>
          </mxGeometry>
        </mxCell>
        <mxCell id="o996kWGBLm6XRRgAgfAA-57" value="&lt;font style=&quot;font-size: 10px;&quot;&gt;no&lt;/font&gt;" style="edgeLabel;html=1;align=center;verticalAlign=middle;resizable=0;points=[];" vertex="1" connectable="0" parent="o996kWGBLm6XRRgAgfAA-56">
          <mxGeometry x="-0.706" y="-2" relative="1" as="geometry">
            <mxPoint x="16" as="offset" />
          </mxGeometry>
        </mxCell>
        <mxCell id="o996kWGBLm6XRRgAgfAA-43" value="succes?" style="strokeWidth=2;html=1;shape=mxgraph.flowchart.decision;whiteSpace=wrap;" vertex="1" parent="1">
          <mxGeometry x="117" y="310" width="80" height="50" as="geometry" />
        </mxCell>
        <mxCell id="o996kWGBLm6XRRgAgfAA-44" value="only abstract" style="edgeStyle=orthogonalEdgeStyle;rounded=0;orthogonalLoop=1;jettySize=auto;html=1;exitX=0.5;exitY=0;exitDx=0;exitDy=0;exitPerimeter=0;entryX=0.5;entryY=1;entryDx=0;entryDy=0;entryPerimeter=0;" edge="1" parent="1">
          <mxGeometry x="-0.2" y="-1" relative="1" as="geometry">
            <mxPoint x="379" y="310" as="sourcePoint" />
            <mxPoint x="379" y="260" as="targetPoint" />
            <mxPoint as="offset" />
          </mxGeometry>
        </mxCell>
        <mxCell id="o996kWGBLm6XRRgAgfAA-53" style="edgeStyle=orthogonalEdgeStyle;rounded=0;orthogonalLoop=1;jettySize=auto;html=1;exitX=0;exitY=0.5;exitDx=0;exitDy=0;exitPerimeter=0;entryX=0;entryY=0.5;entryDx=0;entryDy=0;entryPerimeter=0;" edge="1" parent="1" source="o996kWGBLm6XRRgAgfAA-43" target="o996kWGBLm6XRRgAgfAA-8">
          <mxGeometry relative="1" as="geometry" />
        </mxCell>
        <mxCell id="o996kWGBLm6XRRgAgfAA-54" value="add sections to abstract" style="edgeLabel;html=1;align=center;verticalAlign=middle;resizable=0;points=[];" vertex="1" connectable="0" parent="o996kWGBLm6XRRgAgfAA-53">
          <mxGeometry x="0.0767" y="-2" relative="1" as="geometry">
            <mxPoint as="offset" />
          </mxGeometry>
        </mxCell>
        <mxCell id="o996kWGBLm6XRRgAgfAA-55" value="&lt;font style=&quot;font-size: 10px;&quot;&gt;yes&lt;/font&gt;" style="edgeLabel;html=1;align=center;verticalAlign=middle;resizable=0;points=[];" vertex="1" connectable="0" parent="o996kWGBLm6XRRgAgfAA-53">
          <mxGeometry x="-0.64" relative="1" as="geometry">
            <mxPoint as="offset" />
          </mxGeometry>
        </mxCell>
      </root>
    </mxGraphModel>
  </diagram>
</mxfile>
